{
  "asset": {
    "generator": "Khronos glTF Blender I/O v3.5.30",
    "version": "2.0"
  },
  "extensionsUsed": [
    "KHR_materials_ior",
    "KHR_materials_specular"
  ],
  "scene": 0,
  "scenes": [
    {
      "name": "Scene",
      "nodes": [
        0
      ]
    }
  ],
  "nodes": [
    {
      "mesh": 0,
      "name": "objEXCHANGE",
      "rotation": [
        0.70710688829422,
        0,
        0,
        0.7071066498756409
      ]
    }
  ],
  "materials": [
    {
      "doubleSided": true,
      "extensions": {
        "KHR_materials_specular": {
          "specularColorFactor": [
            0,
            0,
            0
          ]
        },
        "KHR_materials_ior": {
          "ior": 1.4500000476837158
        }
      },
      "name": "default",
      "pbrMetallicRoughness": {
        "baseColorTexture": {
          "index": 0
        },
        "metallicFactor": 0
      }
    },
    {
      "doubleSided": true,
      "name": "Rectus Abdominis",
      "pbrMetallicRoughness": {
        "baseColorTexture": {
          "index": 1
        },
        "metallicFactor": 0,
        "roughnessFactor": 0.5
      }
    },
    {
      "doubleSided": true,
      "name": "pectoralis major",
      "pbrMetallicRoughness": {
        "baseColorTexture": {
          "index": 2
        },
        "metallicFactor": 0,
        "roughnessFactor": 0.5
      }
    },
    {
      "doubleSided": true,
      "name": "obliques",
      "pbrMetallicRoughness": {
        "baseColorTexture": {
          "index": 3
        },
        "metallicFactor": 0,
        "roughnessFactor": 0.5
      }
    },
    {
      "doubleSided": true,
      "name": "quadriceps",
      "pbrMetallicRoughness": {
        "baseColorTexture": {
          "index": 4
        },
        "metallicFactor": 0,
        "roughnessFactor": 0.5
      }
    },
    {
      "doubleSided": true,
      "name": "calves",
      "pbrMetallicRoughness": {
        "baseColorTexture": {
          "index": 5
        },
        "metallicFactor": 0,
        "roughnessFactor": 0.5
      }
    },
    {
      "doubleSided": true,
      "name": "hamstrings",
      "pbrMetallicRoughness": {
        "baseColorTexture": {
          "index": 6
        },
        "metallicFactor": 0,
        "roughnessFactor": 0.5
      }
    },
    {
      "doubleSided": true,
      "name": "gluteus maximus",
      "pbrMetallicRoughness": {
        "baseColorTexture": {
          "index": 7
        },
        "metallicFactor": 0,
        "roughnessFactor": 0.5
      }
    },
    {
      "doubleSided": true,
      "name": "latissimus dorsi & teres major",
      "pbrMetallicRoughness": {
        "baseColorTexture": {
          "index": 8
        },
        "metallicFactor": 0,
        "roughnessFactor": 0.5
      }
    },
    {
      "doubleSided": true,
      "name": "trapezius",
      "pbrMetallicRoughness": {
        "baseColorTexture": {
          "index": 9
        },
        "metallicFactor": 0,
        "roughnessFactor": 0.5
      }
    },
    {
      "doubleSided": true,
      "name": "deltoid",
      "pbrMetallicRoughness": {
        "baseColorTexture": {
          "index": 10
        },
        "metallicFactor": 0,
        "roughnessFactor": 0.5
      }
    },
    {
      "doubleSided": true,
      "name": "biceps brachii",
      "pbrMetallicRoughness": {
        "baseColorTexture": {
          "index": 11
        },
        "metallicFactor": 0,
        "roughnessFactor": 0.5
      }
    },
    {
      "doubleSided": true,
      "name": "triceps brachii",
      "pbrMetallicRoughness": {
        "baseColorTexture": {
          "index": 12
        },
        "metallicFactor": 0,
        "roughnessFactor": 0.5
      }
    },
    {
      "doubleSided": true,
      "name": "hip adductors",
      "pbrMetallicRoughness": {
        "baseColorTexture": {
          "index": 13
        },
        "metallicFactor": 0,
        "roughnessFactor": 0.5
      }
    },
    {
      "doubleSided": true,
      "name": "brachioradialis",
      "pbrMetallicRoughness": {
        "baseColorTexture": {
          "index": 14
        },
        "metallicFactor": 0,
        "roughnessFactor": 0.5
      }
    }
  ],
  "meshes": [
    {
      "name": "objEXCHANGE.003",
      "primitives": [
        {
          "attributes": {
            "POSITION": 0,
            "TEXCOORD_0": 1,
            "NORMAL": 2
          },
          "indices": 3,
          "material": 0
        },
        {
          "attributes": {
            "POSITION": 4,
            "TEXCOORD_0": 5,
            "NORMAL": 6
          },
          "indices": 7,
          "material": 1
        },
        {
          "attributes": {
            "POSITION": 8,
            "TEXCOORD_0": 9,
            "NORMAL": 10
          },
          "indices": 11,
          "material": 2
        },
        {
          "attributes": {
            "POSITION": 12,
            "TEXCOORD_0": 13,
            "NORMAL": 14
          },
          "indices": 15,
          "material": 3
        },
        {
          "attributes": {
            "POSITION": 16,
            "TEXCOORD_0": 17,
            "NORMAL": 18
          },
          "indices": 19,
          "material": 4
        },
        {
          "attributes": {
            "POSITION": 20,
            "TEXCOORD_0": 21,
            "NORMAL": 22
          },
          "indices": 23,
          "material": 5
        },
        {
          "attributes": {
            "POSITION": 24,
            "TEXCOORD_0": 25,
            "NORMAL": 26
          },
          "indices": 27,
          "material": 6
        },
        {
          "attributes": {
            "POSITION": 28,
            "TEXCOORD_0": 29,
            "NORMAL": 30
          },
          "indices": 31,
          "material": 7
        },
        {
          "attributes": {
            "POSITION": 32,
            "TEXCOORD_0": 33,
            "NORMAL": 34
          },
          "indices": 35,
          "material": 8
        },
        {
          "attributes": {
            "POSITION": 36,
            "TEXCOORD_0": 37,
            "NORMAL": 38
          },
          "indices": 39,
          "material": 9
        },
        {
          "attributes": {
            "POSITION": 40,
            "TEXCOORD_0": 41,
            "NORMAL": 42
          },
          "indices": 43,
          "material": 10
        },
        {
          "attributes": {
            "POSITION": 44,
            "TEXCOORD_0": 45,
            "NORMAL": 46
          },
          "indices": 47,
          "material": 11
        },
        {
          "attributes": {
            "POSITION": 48,
            "TEXCOORD_0": 49,
            "NORMAL": 50
          },
          "indices": 51,
          "material": 12
        },
        {
          "attributes": {
            "POSITION": 52,
            "TEXCOORD_0": 53,
            "NORMAL": 54
          },
          "indices": 55,
          "material": 13
        },
        {
          "attributes": {
            "POSITION": 56,
            "TEXCOORD_0": 57,
            "NORMAL": 58
          },
          "indices": 59,
          "material": 14
        }
      ]
    }
  ],
  "textures": [
    {
      "sampler": 0,
      "source": 0
    },
    {
      "sampler": 0,
      "source": 0
    },
    {
      "sampler": 0,
      "source": 0
    },
    {
      "sampler": 0,
      "source": 0
    },
    {
      "sampler": 0,
      "source": 0
    },
    {
      "sampler": 0,
      "source": 0
    },
    {
      "sampler": 0,
      "source": 0
    },
    {
      "sampler": 0,
      "source": 0
    },
    {
      "sampler": 0,
      "source": 0
    },
    {
      "sampler": 0,
      "source": 0
    },
    {
      "sampler": 0,
      "source": 0
    },
    {
      "sampler": 0,
      "source": 0
    },
    {
      "sampler": 0,
      "source": 0
    },
    {
      "sampler": 0,
      "source": 0
    },
    {
      "sampler": 0,
      "source": 0
    }
  ],
  "images": [
    {
      "name": "diffuse",
      "uri": "model1_img0.jpg"
    }
  ],
  "accessors": [
    {
      "bufferView": 0,
      "componentType": 5126,
      "count": 1148175,
      "max": [
        0.5579119920730591,
        0.1780720055103302,
        0.004366970155388117
      ],
      "min": [
        -0.5579119920730591,
        -0.13354399800300598,
        -1.9575200080871582
      ],
      "type": "VEC3"
    },
    {
      "bufferView": 1,
      "componentType": 5126,
      "count": 1148175,
      "type": "VEC2"
    },
    {
      "bufferView": 2,
      "componentType": 5126,
      "count": 1148175,
      "type": "VEC3"
    },
    {
      "bufferView": 3,
      "componentType": 5125,
      "count": 1148175,
      "type": "SCALAR"
    },
    {
      "bufferView": 4,
      "componentType": 5126,
      "count": 46428,
      "max": [
        0.09253799170255661,
        0.1716029942035675,
        -1.0070290565490723
      ],
      "min": [
        -0.09499000012874603,
        0.13359400629997253,
        -1.422516942024231
      ],
      "type": "VEC3"
    },
    {
      "bufferView": 5,
      "componentType": 5126,
      "count": 46428,
      "type": "VEC2"
    },
    {
      "bufferView": 6,
      "componentType": 5126,
      "count": 46428,
      "type": "VEC3"
    },
    {
      "bufferView": 7,
      "componentType": 5123,
      "count": 46428,
      "type": "SCALAR"
    },
    {
      "bufferView": 8,
      "componentType": 5126,
      "count": 74829,
      "max": [
        0.21251098811626434,
        0.16563400626182556,
        -1.4045939445495605
      ],
      "min": [
        -0.2088399976491928,
        0.053840991109609604,
        -1.6198259592056274
      ],
      "type": "VEC3"
    },
    {
      "bufferView": 9,
      "componentType": 5126,
      "count": 74829,
      "type": "VEC2"
    },
    {
      "bufferView": 10,
      "componentType": 5126,
      "count": 74829,
      "type": "VEC3"
    },
    {
      "bufferView": 11,
      "componentType": 5125,
      "count": 74829,
      "type": "SCALAR"
    },
    {
      "bufferView": 12,
      "componentType": 5126,
      "count": 50958,
      "max": [
        0.18118800222873688,
        0.14193099737167358,
        -1.1275990009307861
      ],
      "min": [
        -0.18094399571418762,
        -0.03213300183415413,
        -1.4254230260849
      ],
      "type": "VEC3"
    },
    {
      "bufferView": 13,
      "componentType": 5126,
      "count": 50958,
      "type": "VEC2"
    },
    {
      "bufferView": 14,
      "componentType": 5126,
      "count": 50958,
      "type": "VEC3"
    },
    {
      "bufferView": 15,
      "componentType": 5123,
      "count": 50958,
      "type": "SCALAR"
    },
    {
      "bufferView": 16,
      "componentType": 5126,
      "count": 85701,
      "max": [
        0.2114579975605011,
        0.13500098884105682,
        -0.5392109751701355
      ],
      "min": [
        -0.21176500618457794,
        0.010478000156581402,
        -1.0777159929275513
      ],
      "type": "VEC3"
    },
    {
      "bufferView": 17,
      "componentType": 5126,
      "count": 85701,
      "type": "VEC2"
    },
    {
      "bufferView": 18,
      "componentType": 5126,
      "count": 85701,
      "type": "VEC3"
    },
    {
      "bufferView": 19,
      "componentType": 5125,
      "count": 85701,
      "type": "SCALAR"
    },
    {
      "bufferView": 20,
      "componentType": 5126,
      "count": 64002,
      "max": [
        0.236612007021904,
        -0.03595399111509323,
        -0.04689401015639305
      ],
      "min": [
        -0.236612007021904,
        -0.1407259851694107,
        -0.5995410084724426
      ],
      "type": "VEC3"
    },
    {
      "bufferView": 21,
      "componentType": 5126,
      "count": 64002,
      "type": "VEC2"
    },
    {
      "bufferView": 22,
      "componentType": 5126,
      "count": 64002,
      "type": "VEC3"
    },
    {
      "bufferView": 23,
      "componentType": 5123,
      "count": 64002,
      "type": "SCALAR"
    },
    {
      "bufferView": 24,
      "componentType": 5126,
      "count": 86073,
      "max": [
        0.2155429869890213,
        0.005911999847739935,
        -0.5250529646873474
      ],
      "min": [
        -0.2155429869890213,
        -0.07833000272512436,
        -0.9062420129776001
      ],
      "type": "VEC3"
    },
    {
      "bufferView": 25,
      "componentType": 5126,
      "count": 86073,
      "type": "VEC2"
    },
    {
      "bufferView": 26,
      "componentType": 5126,
      "count": 86073,
      "type": "VEC3"
    },
    {
      "bufferView": 27,
      "componentType": 5125,
      "count": 86073,
      "type": "SCALAR"
    },
    {
      "bufferView": 28,
      "componentType": 5126,
      "count": 67359,
      "max": [
        0.20120100677013397,
        -0.02572798915207386,
        -0.8693339824676514
      ],
      "min": [
        -0.19655199348926544,
        -0.13048100471496582,
        -1.1507409811019897
      ],
      "type": "VEC3"
    },
    {
      "bufferView": 29,
      "componentType": 5126,
      "count": 67359,
      "type": "VEC2"
    },
    {
      "bufferView": 30,
      "componentType": 5126,
      "count": 67359,
      "type": "VEC3"
    },
    {
      "bufferView": 31,
      "componentType": 5125,
      "count": 67359,
      "type": "SCALAR"
    },
    {
      "bufferView": 32,
      "componentType": 5126,
      "count": 74679,
      "max": [
        0.22353097796440125,
        0.012923999689519405,
        -1.1785069704055786
      ],
      "min": [
        -0.22353097796440125,
        -0.13253499567508698,
        -1.5127270221710205
      ],
      "type": "VEC3"
    },
    {
      "bufferView": 33,
      "componentType": 5126,
      "count": 74679,
      "type": "VEC2"
    },
    {
      "bufferView": 34,
      "componentType": 5126,
      "count": 74679,
      "type": "VEC3"
    },
    {
      "bufferView": 35,
      "componentType": 5125,
      "count": 74679,
      "type": "SCALAR"
    },
    {
      "bufferView": 36,
      "componentType": 5126,
      "count": 68289,
      "max": [
        0.1786320060491562,
        0.028117990121245384,
        -1.384695053100586
      ],
      "min": [
        -0.17817999422550201,
        -0.12140799313783646,
        -1.8041930198669434
      ],
      "type": "VEC3"
    },
    {
      "bufferView": 37,
      "componentType": 5126,
      "count": 68289,
      "type": "VEC2"
    },
    {
      "bufferView": 38,
      "componentType": 5126,
      "count": 68289,
      "type": "VEC3"
    },
    {
      "bufferView": 39,
      "componentType": 5125,
      "count": 68289,
      "type": "SCALAR"
    },
    {
      "bufferView": 40,
      "componentType": 5126,
      "count": 86259,
      "max": [
        0.32048800587654114,
        0.08443199843168259,
        -1.4526519775390625
      ],
      "min": [
        -0.32081401348114014,
        -0.11287999153137207,
        -1.6348299980163574
      ],
      "type": "VEC3"
    },
    {
      "bufferView": 41,
      "componentType": 5126,
      "count": 86259,
      "type": "VEC2"
    },
    {
      "bufferView": 42,
      "componentType": 5126,
      "count": 86259,
      "type": "VEC3"
    },
    {
      "bufferView": 43,
      "componentType": 5125,
      "count": 86259,
      "type": "SCALAR"
    },
    {
      "bufferView": 44,
      "componentType": 5126,
      "count": 30198,
      "max": [
        0.3641220033168793,
        0.055876001715660095,
        -1.281954050064087
      ],
      "min": [
        -0.3606939911842346,
        -0.006668990012258291,
        -1.488515019416809
      ],
      "type": "VEC3"
    },
    {
      "bufferView": 45,
      "componentType": 5126,
      "count": 30198,
      "type": "VEC2"
    },
    {
      "bufferView": 46,
      "componentType": 5126,
      "count": 30198,
      "type": "VEC3"
    },
    {
      "bufferView": 47,
      "componentType": 5123,
      "count": 30198,
      "type": "SCALAR"
    },
    {
      "bufferView": 48,
      "componentType": 5126,
      "count": 42681,
      "max": [
        0.40797197818756104,
        -0.003596999915316701,
        -1.260599970817566
      ],
      "min": [
        -0.4047270119190216,
        -0.09398499131202698,
        -1.5008900165557861
      ],
      "type": "VEC3"
    },
    {
      "bufferView": 49,
      "componentType": 5126,
      "count": 42681,
      "type": "VEC2"
    },
    {
      "bufferView": 50,
      "componentType": 5126,
      "count": 42681,
      "type": "VEC3"
    },
    {
      "bufferView": 51,
      "componentType": 5123,
      "count": 42681,
      "type": "SCALAR"
    },
    {
      "bufferView": 52,
      "componentType": 5126,
      "count": 51624,
      "max": [
        0.08836700022220612,
        0.12245199084281921,
        -0.5399489402770996
      ],
      "min": [
        -0.0859149917960167,
        -0.08902700245380402,
        -1.1210349798202515
      ],
      "type": "VEC3"
    },
    {
      "bufferView": 53,
      "componentType": 5126,
      "count": 51624,
      "type": "VEC2"
    },
    {
      "bufferView": 54,
      "componentType": 5126,
      "count": 51624,
      "type": "VEC3"
    },
    {
      "bufferView": 55,
      "componentType": 5123,
      "count": 51624,
      "type": "SCALAR"
    },
    {
      "bufferView": 56,
      "componentType": 5126,
      "count": 15597,
      "max": [
        0.48476698994636536,
        0.1335120052099228,
        -1.0933849811553955
      ],
      "min": [
        -0.48625001311302185,
        -0.014290999621152878,
        -1.5259840488433838
      ],
      "type": "VEC3"
    },
    {
      "bufferView": 57,
      "componentType": 5126,
      "count": 15597,
      "type": "VEC2"
    },
    {
      "bufferView": 58,
      "componentType": 5126,
      "count": 15597,
      "type": "VEC3"
    },
    {
      "bufferView": 59,
      "componentType": 5123,
      "count": 15597,
      "type": "SCALAR"
    }
  ],
  "bufferViews": [
    {
      "buffer": 0,
      "byteLength": 13778100,
      "byteOffset": 0,
      "target": 34962
    },
    {
      "buffer": 0,
      "byteLength": 9185400,
      "byteOffset": 13778100,
      "target": 34962
    },
    {
      "buffer": 0,
      "byteLength": 13778100,
      "byteOffset": 22963500,
      "target": 34962
    },
    {
      "buffer": 0,
      "byteLength": 4592700,
      "byteOffset": 36741600,
      "target": 34963
    },
    {
      "buffer": 0,
      "byteLength": 557136,
      "byteOffset": 41334300,
      "target": 34962
    },
    {
      "buffer": 0,
      "byteLength": 371424,
      "byteOffset": 41891436,
      "target": 34962
    },
    {
      "buffer": 0,
      "byteLength": 557136,
      "byteOffset": 42262860,
      "target": 34962
    },
    {
      "buffer": 0,
      "byteLength": 92856,
      "byteOffset": 42819996,
      "target": 34963
    },
    {
      "buffer": 0,
      "byteLength": 897948,
      "byteOffset": 42912852,
      "target": 34962
    },
    {
      "buffer": 0,
      "byteLength": 598632,
      "byteOffset": 43810800,
      "target": 34962
    },
    {
      "buffer": 0,
      "byteLength": 897948,
      "byteOffset": 44409432,
      "target": 34962
    },
    {
      "buffer": 0,
      "byteLength": 299316,
      "byteOffset": 45307380,
      "target": 34963
    },
    {
      "buffer": 0,
      "byteLength": 611496,
      "byteOffset": 45606696,
      "target": 34962
    },
    {
      "buffer": 0,
      "byteLength": 407664,
      "byteOffset": 46218192,
      "target": 34962
    },
    {
      "buffer": 0,
      "byteLength": 611496,
      "byteOffset": 46625856,
      "target": 34962
    },
    {
      "buffer": 0,
      "byteLength": 101916,
      "byteOffset": 47237352,
      "target": 34963
    },
    {
      "buffer": 0,
      "byteLength": 1028412,
      "byteOffset": 47339268,
      "target": 34962
    },
    {
      "buffer": 0,
      "byteLength": 685608,
      "byteOffset": 48367680,
      "target": 34962
    },
    {
      "buffer": 0,
      "byteLength": 1028412,
      "byteOffset": 49053288,
      "target": 34962
    },
    {
      "buffer": 0,
      "byteLength": 342804,
      "byteOffset": 50081700,
      "target": 34963
    },
    {
      "buffer": 0,
      "byteLength": 768024,
      "byteOffset": 50424504,
      "target": 34962
    },
    {
      "buffer": 0,
      "byteLength": 512016,
      "byteOffset": 51192528,
      "target": 34962
    },
    {
      "buffer": 0,
      "byteLength": 768024,
      "byteOffset": 51704544,
      "target": 34962
    },
    {
      "buffer": 0,
      "byteLength": 128004,
      "byteOffset": 52472568,
      "target": 34963
    },
    {
      "buffer": 0,
      "byteLength": 1032876,
      "byteOffset": 52600572,
      "target": 34962
    },
    {
      "buffer": 0,
      "byteLength": 688584,
      "byteOffset": 53633448,
      "target": 34962
    },
    {
      "buffer": 0,
      "byteLength": 1032876,
      "byteOffset": 54322032,
      "target": 34962
    },
    {
      "buffer": 0,
      "byteLength": 344292,
      "byteOffset": 55354908,
      "target": 34963
    },
    {
      "buffer": 0,
      "byteLength": 808308,
      "byteOffset": 55699200,
      "target": 34962
    },
    {
      "buffer": 0,
      "byteLength": 538872,
      "byteOffset": 56507508,
      "target": 34962
    },
    {
      "buffer": 0,
      "byteLength": 808308,
      "byteOffset": 57046380,
      "target": 34962
    },
    {
      "buffer": 0,
      "byteLength": 269436,
      "byteOffset": 57854688,
      "target": 34963
    },
    {
      "buffer": 0,
      "byteLength": 896148,
      "byteOffset": 58124124,
      "target": 34962
    },
    {
      "buffer": 0,
      "byteLength": 597432,
      "byteOffset": 59020272,
      "target": 34962
    },
    {
      "buffer": 0,
      "byteLength": 896148,
      "byteOffset": 59617704,
      "target": 34962
    },
    {
      "buffer": 0,
      "byteLength": 298716,
      "byteOffset": 60513852,
      "target": 34963
    },
    {
      "buffer": 0,
      "byteLength": 819468,
      "byteOffset": 60812568,
      "target": 34962
    },
    {
      "buffer": 0,
      "byteLength": 546312,
      "byteOffset": 61632036,
      "target": 34962
    },
    {
      "buffer": 0,
      "byteLength": 819468,
      "byteOffset": 62178348,
      "target": 34962
    },
    {
      "buffer": 0,
      "byteLength": 273156,
      "byteOffset": 62997816,
      "target": 34963
    },
    {
      "buffer": 0,
      "byteLength": 1035108,
      "byteOffset": 63270972,
      "target": 34962
    },
    {
      "buffer": 0,
      "byteLength": 690072,
      "byteOffset": 64306080,
      "target": 34962
    },
    {
      "buffer": 0,
      "byteLength": 1035108,
      "byteOffset": 64996152,
      "target": 34962
    },
    {
      "buffer": 0,
      "byteLength": 345036,
      "byteOffset": 66031260,
      "target": 34963
    },
    {
      "buffer": 0,
      "byteLength": 362376,
      "byteOffset": 66376296,
      "target": 34962
    },
    {
      "buffer": 0,
      "byteLength": 241584,
      "byteOffset": 66738672,
      "target": 34962
    },
    {
      "buffer": 0,
      "byteLength": 362376,
      "byteOffset": 66980256,
      "target": 34962
    },
    {
      "buffer": 0,
      "byteLength": 60396,
      "byteOffset": 67342632,
      "target": 34963
    },
    {
      "buffer": 0,
      "byteLength": 512172,
      "byteOffset": 67403028,
      "target": 34962
    },
    {
      "buffer": 0,
      "byteLength": 341448,
      "byteOffset": 67915200,
      "target": 34962
    },
    {
      "buffer": 0,
      "byteLength": 512172,
      "byteOffset": 68256648,
      "target": 34962
    },
    {
      "buffer": 0,
      "byteLength": 85364,
      "byteOffset": 68768820,
      "target": 34963
    },
    {
      "buffer": 0,
      "byteLength": 619488,
      "byteOffset": 68854184,
      "target": 34962
    },
    {
      "buffer": 0,
      "byteLength": 412992,
      "byteOffset": 69473672,
      "target": 34962
    },
    {
      "buffer": 0,
      "byteLength": 619488,
      "byteOffset": 69886664,
      "target": 34962
    },
    {
      "buffer": 0,
      "byteLength": 103248,
      "byteOffset": 70506152,
      "target": 34963
    },
    {
      "buffer": 0,
      "byteLength": 187164,
      "byteOffset": 70609400,
      "target": 34962
    },
    {
      "buffer": 0,
      "byteLength": 124776,
      "byteOffset": 70796564,
      "target": 34962
    },
    {
      "buffer": 0,
      "byteLength": 187164,
      "byteOffset": 70921340,
      "target": 34962
    },
    {
      "buffer": 0,
      "byteLength": 31196,
      "byteOffset": 71108504,
      "target": 34963
    }
  ],
  "samplers": [
    {
      "magFilter": 9729,
      "minFilter": 9987
    }
  ],
  "buffers": [
    {
      "uri": "model1_data.bin",
      "byteLength": 71139700
    }
  ]
}